<?xml version="1.0" encoding="utf-8"?>
<!-- Svg Vector Icons : http://www.onlinewebfonts.com/icon -->
<!DOCTYPE svg PUBLIC "-//W3C//DTD SVG 1.1//EN" "http://www.w3.org/Graphics/SVG/1.1/DTD/svg11.dtd">
<svg version="1.1" xmlns="http://www.w3.org/2000/svg" xmlns:xlink="http://www.w3.org/1999/xlink" x="0px" y="0px" viewBox="0 0 1000 1000" enable-background="new 0 0 1000 1000" xml:space="preserve">
<metadata> Svg Vector Icons : http://www.onlinewebfonts.com/icon </metadata>
<g><g transform="translate(0.000000,511.000000) scale(0.100000,-0.100000)"><path d="M6533.7,4992.2c-810.9-105.4-1502.3-669-1773.9-1445.5c-113.5-320.3-152.1-717.7-103.4-1054.2c18.2-123.7,32.4-154.1,115.6-253.4C5090.2,1862,5767.3,1280.1,6258,961.8c350.7-225,760.3-407.5,920.4-407.5c137.9,0,468.3,101.4,691.3,212.9c567.7,281.8,971.1,778.5,1141.4,1405c46.6,178.4,52.7,231.1,52.7,561.6c0,334.5-6.1,381.1-56.8,567.7C8700.9,4414.4,7648.7,5134.1,6533.7,4992.2z"/><path d="M4433.3,1857.9C3168.3-110.7,1228.1-3151.7,1045.6-3447.7c-109.5-180.4-109.5-182.5-109.5-344.7c0-148,6.1-176.4,71-296c93.3-172.3,371-454.1,557.5-563.6c196.7-115.6,377.1-160.2,531.2-127.7c64.9,12.2,150,44.6,192.6,73c40.6,28.4,484.5,490.6,985.3,1027.9C5511.9-1272.4,6945.2,280.6,6935.1,288.7c-4.1,6.1-73,26.3-152.1,44.6c-644.7,164.2-1459.7,770.4-2074,1540.8c-66.9,81.1-127.7,158.1-135.8,166.2C4567.1,2050.5,4502.3,1967.4,4433.3,1857.9z"/></g></g>
</svg>